<?xml version="1.0" ?><svg enable-background="new 0 0 32 32" height="32px" id="svg2" version="1.1" viewBox="0 0 32 32" width="32px" xml:space="preserve" xmlns="http://www.w3.org/2000/svg" xmlns:cc="http://creativecommons.org/ns#" xmlns:dc="http://purl.org/dc/elements/1.1/" xmlns:inkscape="http://www.inkscape.org/namespaces/inkscape" xmlns:rdf="http://www.w3.org/1999/02/22-rdf-syntax-ns#" xmlns:sodipodi="http://sodipodi.sourceforge.net/DTD/sodipodi-0.dtd" xmlns:svg="http://www.w3.org/2000/svg"><g id="background"><rect fill="none" height="32" width="32"/></g><g id="mobile_x5F_phone"><g><path d="M8,0v32h16V0H8z M13,30h-2v-2.001h2V30z M13,26h-2v-2h2V26z M13,22h-2v-2h2V22z M17,30h-2v-2h2V30z M17,26h-2v-2h2V26z     M17,22h-2v-2h2V22z M21,30h-2v-2h2V30z M21,26h-2v-2h2V26z M21,22h-2v-2h2V22z M21,18H11V4h10V18z"/></g></g></svg>